<svg width="50" height="50" viewBox="0 0 50 50" fill="currentColor" xmlns="http://www.w3.org/2000/svg">
<path fill-rule="evenodd" clip-rule="evenodd" d="M10.4166 2.08334C8.20645 2.08334 6.08683 2.96132 4.52403 4.52412C2.96123 6.08692 2.08325 8.20654 2.08325 10.4167V39.5833C2.08325 41.7935 2.96123 43.9131 4.52403 45.4759C6.08683 47.0387 8.20645 47.9167 10.4166 47.9167H39.5833C41.7934 47.9167 43.913 47.0387 45.4758 45.4759C47.0386 43.9131 47.9166 41.7935 47.9166 39.5833V10.4167C47.9166 8.20654 47.0386 6.08692 45.4758 4.52412C43.913 2.96132 41.7934 2.08334 39.5833 2.08334H10.4166ZM8.33325 31.6292V18.75H10.6041V20.1938C11.6083 19.4333 12.9833 18.75 14.7749 18.75C15.602 18.75 16.5728 18.9896 17.3708 19.4938C17.6624 19.6771 17.9458 19.9104 18.1916 20.1875C19.3745 19.252 20.8397 18.7453 22.3478 18.75C23.1749 18.75 24.1478 18.9896 24.9458 19.4938C25.7583 20.0083 26.5145 20.8917 26.5145 22.1604V31.6292H24.2437V22.1583C24.2437 21.9104 24.1166 21.6583 23.7312 21.4146C23.3138 21.1618 22.8358 21.0265 22.3478 21.0229C20.7937 21.0229 19.7312 21.7667 18.9395 22.5458V31.6292H16.6666V22.1583C16.6666 21.9104 16.5416 21.6583 16.1562 21.4146C15.7388 21.1618 15.2608 21.0265 14.7728 21.0229C12.7312 21.0229 11.6187 22.2521 10.752 23.2083L10.6062 23.3688V31.6292H8.33325ZM31.2166 26.325H41.6666V25.1896C41.6661 23.668 41.1267 22.1957 40.144 21.034C39.1613 19.8723 37.7989 19.0962 36.2984 18.8435C34.798 18.5907 33.2565 18.8776 31.9474 19.6533C30.6384 20.429 29.6464 21.6433 29.1475 23.0808C28.6486 24.5182 28.675 26.086 29.222 27.5058C29.769 28.9257 30.8013 30.1059 32.1357 30.8371C33.4701 31.5683 35.0204 31.8031 36.5115 31.5C38.0026 31.1969 39.3381 30.3754 40.2812 29.1813L38.4978 27.7708C38.0222 28.374 37.3892 28.834 36.6685 29.0999C35.9479 29.3659 35.1678 29.4274 34.4144 29.2778C33.661 29.1282 32.9636 28.7733 32.3993 28.2522C31.835 27.7311 31.4256 27.0641 31.2166 26.325ZM35.227 21.0229C34.3197 21.0226 33.437 21.3185 32.7132 21.8656C31.9893 22.4127 31.4638 23.1812 31.2166 24.0542H39.2374C38.9902 23.1812 38.4647 22.4127 37.7409 21.8656C37.017 21.3185 36.1344 21.0226 35.227 21.0229Z" fill="currentColor"/>
</svg>
