<svg width="42" height="42" viewBox="0 0 42 42" fill="none" xmlns="http://www.w3.org/2000/svg">
<path d="M39.75 0.166687H8.49996C7.39489 0.166687 6.33508 0.605674 5.55368 1.38708C4.77228 2.16848 4.33329 3.22829 4.33329 4.33335V10.5834H0.166626V14.75H4.33329V18.9167H0.166626V23.0834H4.33329V27.25H0.166626V31.4167H4.33329V37.6667C4.33329 38.7718 4.77228 39.8316 5.55368 40.613C6.33508 41.3944 7.39489 41.8334 8.49996 41.8334H39.75C40.3025 41.8334 40.8324 41.6139 41.2231 41.2232C41.6138 40.8325 41.8333 40.3026 41.8333 39.75V2.25002C41.8333 1.69749 41.6138 1.16758 41.2231 0.776881C40.8324 0.38618 40.3025 0.166687 39.75 0.166687ZM23.0833 6.4146C26.5166 6.4146 29.3333 9.22919 29.3333 12.6646C29.3284 14.3209 28.6684 15.9079 27.4974 17.0793C26.3264 18.2507 24.7396 18.9112 23.0833 18.9167C19.652 18.9167 16.8333 16.0979 16.8333 12.6646C16.8333 9.22919 19.652 6.4146 23.0833 6.4146ZM35.5833 33.5H10.5833V31.9375C10.5833 27.3146 16.2187 22.5625 23.0833 22.5625C29.9479 22.5625 35.5833 27.3146 35.5833 31.9375V33.5Z" fill="currentColor" />
</svg>
